<svg width="157" height="33" viewBox="0 0 157 33" fill="none" xmlns="http://www.w3.org/2000/svg">
<path d="M1.592 25C1.208 25 0.877333 24.872 0.6 24.616C0.344 24.3387 0.216 24.008 0.216 23.624V1.384C0.216 0.978666 0.344 0.647999 0.6 0.391998C0.856 0.135999 1.18667 0.00799942 1.592 0.00799942H16.408C16.8133 0.00799942 17.144 0.135999 17.4 0.391998C17.656 0.626666 17.784 0.936 17.784 1.32C17.784 1.68267 17.656 1.992 17.4 2.248C17.144 2.48267 16.8133 2.6 16.408 2.6H2.968V11.112H12.728C13.1333 11.112 13.4533 11.24 13.688 11.496C13.944 11.752 14.072 12.0613 14.072 12.424C14.072 12.808 13.944 13.128 13.688 13.384C13.4533 13.6187 13.1333 13.736 12.728 13.736H2.968V23.624C2.968 24.008 2.82933 24.3387 2.552 24.616C2.296 24.872 1.976 25 1.592 25ZM29.848 25.16C28.12 25.16 26.584 24.776 25.24 24.008C23.9173 23.24 22.872 22.184 22.104 20.84C21.336 19.496 20.952 17.9707 20.952 16.264C20.952 14.536 21.336 13 22.104 11.656C22.872 10.312 23.9173 9.256 25.24 8.488C26.584 7.72 28.12 7.336 29.848 7.336C31.5547 7.336 33.0693 7.72 34.392 8.488C35.7147 9.256 36.76 10.312 37.528 11.656C38.296 13 38.6907 14.536 38.712 16.264C38.712 17.9707 38.328 19.496 37.56 20.84C36.792 22.184 35.736 23.24 34.392 24.008C33.0693 24.776 31.5547 25.16 29.848 25.16ZM29.848 22.728C31.0427 22.728 32.1093 22.4507 33.048 21.896C33.9867 21.32 34.7227 20.552 35.256 19.592C35.7893 18.6107 36.056 17.5013 36.056 16.264C36.056 15.0267 35.7893 13.9173 35.256 12.936C34.7227 11.9547 33.9867 11.1867 33.048 10.632C32.1093 10.056 31.0427 9.768 29.848 9.768C28.6533 9.768 27.576 10.056 26.616 10.632C25.6773 11.1867 24.9307 11.9547 24.376 12.936C23.8427 13.9173 23.576 15.0267 23.576 16.264C23.576 17.5013 23.8427 18.6107 24.376 19.592C24.9307 20.552 25.6773 21.32 26.616 21.896C27.576 22.4507 28.6533 22.728 29.848 22.728ZM51.473 25.16C49.745 25.16 48.209 24.776 46.865 24.008C45.5423 23.24 44.497 22.184 43.729 20.84C42.961 19.496 42.577 17.9707 42.577 16.264C42.577 14.536 42.961 13 43.729 11.656C44.497 10.312 45.5423 9.256 46.865 8.488C48.209 7.72 49.745 7.336 51.473 7.336C53.1797 7.336 54.6943 7.72 56.017 8.488C57.3397 9.256 58.385 10.312 59.153 11.656C59.921 13 60.3157 14.536 60.337 16.264C60.337 17.9707 59.953 19.496 59.185 20.84C58.417 22.184 57.361 23.24 56.017 24.008C54.6943 24.776 53.1797 25.16 51.473 25.16ZM51.473 22.728C52.6677 22.728 53.7343 22.4507 54.673 21.896C55.6117 21.32 56.3477 20.552 56.881 19.592C57.4143 18.6107 57.681 17.5013 57.681 16.264C57.681 15.0267 57.4143 13.9173 56.881 12.936C56.3477 11.9547 55.6117 11.1867 54.673 10.632C53.7343 10.056 52.6677 9.768 51.473 9.768C50.2783 9.768 49.201 10.056 48.241 10.632C47.3023 11.1867 46.5557 11.9547 46.001 12.936C45.4677 13.9173 45.201 15.0267 45.201 16.264C45.201 17.5013 45.4677 18.6107 46.001 19.592C46.5557 20.552 47.3023 21.32 48.241 21.896C49.201 22.4507 50.2783 22.728 51.473 22.728ZM73.098 25.16C71.4127 25.16 69.898 24.776 68.554 24.008C67.21 23.2187 66.1433 22.152 65.354 20.808C64.586 19.464 64.202 17.9387 64.202 16.232C64.202 14.5467 64.5753 13.032 65.322 11.688C66.0687 10.344 67.082 9.288 68.362 8.52C69.642 7.73067 71.0927 7.336 72.714 7.336C74.1007 7.336 75.3487 7.63467 76.458 8.232C77.5887 8.808 78.506 9.576 79.21 10.536V1.384C79.21 0.957333 79.338 0.626666 79.594 0.391998C79.8713 0.135999 80.202 0.00799942 80.586 0.00799942C80.9913 0.00799942 81.322 0.135999 81.578 0.391998C81.834 0.626666 81.962 0.957333 81.962 1.384V16.328C81.9193 17.992 81.5033 19.496 80.714 20.84C79.946 22.1627 78.9007 23.2187 77.578 24.008C76.2553 24.776 74.762 25.16 73.098 25.16ZM73.098 22.728C74.2927 22.728 75.3487 22.44 76.266 21.864C77.2047 21.288 77.9407 20.52 78.474 19.56C79.0287 18.5787 79.306 17.4693 79.306 16.232C79.306 15.016 79.0287 13.9173 78.474 12.936C77.9407 11.9547 77.2047 11.1867 76.266 10.632C75.3487 10.056 74.2927 9.768 73.098 9.768C71.9247 9.768 70.858 10.056 69.898 10.632C68.9593 11.1867 68.2127 11.9547 67.658 12.936C67.1033 13.9173 66.826 15.016 66.826 16.232C66.826 17.4693 67.1033 18.5787 67.658 19.56C68.2127 20.52 68.9593 21.288 69.898 21.864C70.858 22.44 71.9247 22.728 73.098 22.728Z" fill="black"/>
<path d="M89.5158 25C89.1104 25 88.7584 24.872 88.4598 24.616C88.1824 24.36 88.0438 24.0293 88.0438 23.624V1.384C88.0438 0.978666 88.1718 0.647999 88.4278 0.391998C88.6838 0.135999 89.0144 0.00799942 89.4198 0.00799942H97.1638C98.4864 0.00799942 99.6704 0.285332 100.716 0.839998C101.782 1.39467 102.625 2.152 103.244 3.112C103.862 4.05067 104.172 5.14933 104.172 6.408C104.172 7.53867 103.862 8.54133 103.244 9.416C102.646 10.2907 101.857 10.9733 100.876 11.464C102.284 11.8267 103.425 12.5307 104.3 13.576C105.174 14.6 105.612 15.9227 105.612 17.544C105.612 19.016 105.27 20.3067 104.588 21.416C103.926 22.5253 102.998 23.4 101.804 24.04C100.63 24.68 99.2758 25 97.7398 25H89.5158ZM90.7958 22.408H97.7398C98.7424 22.408 99.6278 22.216 100.396 21.832C101.185 21.4267 101.804 20.872 102.252 20.168C102.7 19.4427 102.924 18.568 102.924 17.544C102.924 16.6053 102.7 15.7947 102.252 15.112C101.804 14.4293 101.185 13.9067 100.396 13.544C99.6278 13.1813 98.7424 13 97.7398 13H90.7958V22.408ZM90.7958 10.376H97.1638C98.4224 10.376 99.4571 10.0347 100.268 9.352C101.078 8.66933 101.484 7.688 101.484 6.408C101.484 5.14933 101.078 4.2 100.268 3.56C99.4571 2.92 98.4224 2.6 97.1638 2.6H90.7958V10.376ZM114.159 25C113.263 25 112.474 24.7653 111.791 24.296C111.108 23.8053 110.575 23.1333 110.191 22.28C109.807 21.4267 109.615 20.4453 109.615 19.336V1.352C109.615 0.946666 109.732 0.626666 109.967 0.391998C110.223 0.135999 110.554 0.00799942 110.959 0.00799942C111.343 0.00799942 111.652 0.135999 111.887 0.391998C112.143 0.626666 112.271 0.946666 112.271 1.352V19.336C112.271 20.2107 112.442 20.936 112.783 21.512C113.146 22.0667 113.604 22.344 114.159 22.344H114.959C115.3 22.344 115.578 22.472 115.791 22.728C116.004 22.9627 116.111 23.272 116.111 23.656C116.111 24.0613 115.951 24.392 115.631 24.648C115.332 24.8827 114.938 25 114.447 25H114.159ZM126.473 25.16C124.745 25.16 123.209 24.776 121.865 24.008C120.542 23.24 119.497 22.184 118.729 20.84C117.961 19.496 117.577 17.9707 117.577 16.264C117.577 14.536 117.961 13 118.729 11.656C119.497 10.312 120.542 9.256 121.865 8.488C123.209 7.72 124.745 7.336 126.473 7.336C128.18 7.336 129.694 7.72 131.017 8.488C132.34 9.256 133.385 10.312 134.153 11.656C134.921 13 135.316 14.536 135.337 16.264C135.337 17.9707 134.953 19.496 134.185 20.84C133.417 22.184 132.361 23.24 131.017 24.008C129.694 24.776 128.18 25.16 126.473 25.16ZM126.473 22.728C127.668 22.728 128.734 22.4507 129.673 21.896C130.612 21.32 131.348 20.552 131.881 19.592C132.414 18.6107 132.681 17.5013 132.681 16.264C132.681 15.0267 132.414 13.9173 131.881 12.936C131.348 11.9547 130.612 11.1867 129.673 10.632C128.734 10.056 127.668 9.768 126.473 9.768C125.278 9.768 124.201 10.056 123.241 10.632C122.302 11.1867 121.556 11.9547 121.001 12.936C120.468 13.9173 120.201 15.0267 120.201 16.264C120.201 17.5013 120.468 18.6107 121.001 19.592C121.556 20.552 122.302 21.32 123.241 21.896C124.201 22.4507 125.278 22.728 126.473 22.728ZM147.714 25.16C146.05 25.16 144.578 24.7867 143.298 24.04C142.018 23.272 141.015 22.216 140.29 20.872C139.565 19.528 139.202 17.992 139.202 16.264C139.202 14.5147 139.586 12.968 140.354 11.624C141.122 10.28 142.167 9.23467 143.49 8.488C144.834 7.72 146.37 7.336 148.098 7.336C149.805 7.336 151.319 7.72 152.642 8.488C153.986 9.23467 155.031 10.28 155.778 11.624C156.546 12.968 156.941 14.5147 156.962 16.264L155.362 16.808C155.362 18.4293 155.031 19.8693 154.37 21.128C153.73 22.3867 152.834 23.3787 151.682 24.104C150.53 24.808 149.207 25.16 147.714 25.16ZM148.098 32.008C146.477 32.008 145.015 31.6987 143.714 31.08C142.434 30.4613 141.357 29.5973 140.482 28.488C140.247 28.2107 140.151 27.9013 140.194 27.56C140.237 27.24 140.407 26.984 140.706 26.792C141.026 26.5787 141.367 26.504 141.73 26.568C142.093 26.632 142.381 26.8133 142.594 27.112C143.191 27.8587 143.959 28.456 144.898 28.904C145.837 29.352 146.925 29.576 148.162 29.576C149.293 29.576 150.327 29.2987 151.266 28.744C152.205 28.2107 152.941 27.432 153.474 26.408C154.029 25.384 154.306 24.168 154.306 22.76V18.024L155.266 15.848L156.962 16.264V22.92C156.962 24.6267 156.578 26.1627 155.81 27.528C155.042 28.9147 153.997 30.0027 152.674 30.792C151.351 31.6027 149.826 32.008 148.098 32.008ZM148.098 22.728C149.314 22.728 150.381 22.4507 151.298 21.896C152.237 21.3413 152.973 20.584 153.506 19.624C154.039 18.6427 154.306 17.5227 154.306 16.264C154.306 15.0053 154.039 13.8853 153.506 12.904C152.973 11.9227 152.237 11.1547 151.298 10.6C150.381 10.0453 149.314 9.768 148.098 9.768C146.882 9.768 145.805 10.0453 144.866 10.6C143.927 11.1547 143.181 11.9227 142.626 12.904C142.093 13.8853 141.826 15.0053 141.826 16.264C141.826 17.5227 142.093 18.6427 142.626 19.624C143.181 20.584 143.927 21.3413 144.866 21.896C145.805 22.4507 146.882 22.728 148.098 22.728Z" fill="#96DC14"/>
</svg>
