<svg width="354" height="73" viewBox="0 0 354 73" fill="none" xmlns="http://www.w3.org/2000/svg">
<path d="M3.832 57C2.968 57 2.224 56.712 1.6 56.136C1.024 55.512 0.736 54.768 0.736 53.904V3.864C0.736 2.952 1.024 2.208 1.6 1.632C2.176 1.056 2.92 0.767999 3.832 0.767999H37.168C38.08 0.767999 38.824 1.056 39.4 1.632C39.976 2.16 40.264 2.856 40.264 3.72C40.264 4.536 39.976 5.232 39.4 5.808C38.824 6.336 38.08 6.6 37.168 6.6H6.928V25.752H28.888C29.8 25.752 30.52 26.04 31.048 26.616C31.624 27.192 31.912 27.888 31.912 28.704C31.912 29.568 31.624 30.288 31.048 30.864C30.52 31.392 29.8 31.656 28.888 31.656H6.928V53.904C6.928 54.768 6.616 55.512 5.992 56.136C5.416 56.712 4.696 57 3.832 57ZM67.408 57.36C63.52 57.36 60.064 56.496 57.04 54.768C54.064 53.04 51.712 50.664 49.984 47.64C48.256 44.616 47.392 41.184 47.392 37.344C47.392 33.456 48.256 30 49.984 26.976C51.712 23.952 54.064 21.576 57.04 19.848C60.064 18.12 63.52 17.256 67.408 17.256C71.248 17.256 74.656 18.12 77.632 19.848C80.608 21.576 82.96 23.952 84.688 26.976C86.416 30 87.304 33.456 87.352 37.344C87.352 41.184 86.488 44.616 84.76 47.64C83.032 50.664 80.656 53.04 77.632 54.768C74.656 56.496 71.248 57.36 67.408 57.36ZM67.408 51.888C70.096 51.888 72.496 51.264 74.608 50.016C76.72 48.72 78.376 46.992 79.576 44.832C80.776 42.624 81.376 40.128 81.376 37.344C81.376 34.56 80.776 32.064 79.576 29.856C78.376 27.648 76.72 25.92 74.608 24.672C72.496 23.376 70.096 22.728 67.408 22.728C64.72 22.728 62.296 23.376 60.136 24.672C58.024 25.92 56.344 27.648 55.096 29.856C53.896 32.064 53.296 34.56 53.296 37.344C53.296 40.128 53.896 42.624 55.096 44.832C56.344 46.992 58.024 48.72 60.136 50.016C62.296 51.264 64.72 51.888 67.408 51.888ZM116.064 57.36C112.176 57.36 108.72 56.496 105.696 54.768C102.72 53.04 100.368 50.664 98.6403 47.64C96.9123 44.616 96.0483 41.184 96.0483 37.344C96.0483 33.456 96.9123 30 98.6403 26.976C100.368 23.952 102.72 21.576 105.696 19.848C108.72 18.12 112.176 17.256 116.064 17.256C119.904 17.256 123.312 18.12 126.288 19.848C129.264 21.576 131.616 23.952 133.344 26.976C135.072 30 135.96 33.456 136.008 37.344C136.008 41.184 135.144 44.616 133.416 47.64C131.688 50.664 129.312 53.04 126.288 54.768C123.312 56.496 119.904 57.36 116.064 57.36ZM116.064 51.888C118.752 51.888 121.152 51.264 123.264 50.016C125.376 48.72 127.032 46.992 128.232 44.832C129.432 42.624 130.032 40.128 130.032 37.344C130.032 34.56 129.432 32.064 128.232 29.856C127.032 27.648 125.376 25.92 123.264 24.672C121.152 23.376 118.752 22.728 116.064 22.728C113.376 22.728 110.952 23.376 108.792 24.672C106.68 25.92 105 27.648 103.752 29.856C102.552 32.064 101.952 34.56 101.952 37.344C101.952 40.128 102.552 42.624 103.752 44.832C105 46.992 106.68 48.72 108.792 50.016C110.952 51.264 113.376 51.888 116.064 51.888ZM164.721 57.36C160.929 57.36 157.521 56.496 154.497 54.768C151.473 52.992 149.073 50.592 147.297 47.568C145.569 44.544 144.705 41.112 144.705 37.272C144.705 33.48 145.545 30.072 147.225 27.048C148.905 24.024 151.185 21.648 154.065 19.92C156.945 18.144 160.209 17.256 163.857 17.256C166.977 17.256 169.785 17.928 172.281 19.272C174.825 20.568 176.889 22.296 178.473 24.456V3.864C178.473 2.904 178.761 2.16 179.337 1.632C179.961 1.056 180.705 0.767999 181.569 0.767999C182.481 0.767999 183.225 1.056 183.801 1.632C184.377 2.16 184.665 2.904 184.665 3.864V37.488C184.569 41.232 183.633 44.616 181.857 47.64C180.129 50.616 177.777 52.992 174.801 54.768C171.825 56.496 168.465 57.36 164.721 57.36ZM164.721 51.888C167.409 51.888 169.785 51.24 171.849 49.944C173.961 48.648 175.617 46.92 176.817 44.76C178.065 42.552 178.689 40.056 178.689 37.272C178.689 34.536 178.065 32.064 176.817 29.856C175.617 27.648 173.961 25.92 171.849 24.672C169.785 23.376 167.409 22.728 164.721 22.728C162.081 22.728 159.681 23.376 157.521 24.672C155.409 25.92 153.729 27.648 152.481 29.856C151.233 32.064 150.609 34.536 150.609 37.272C150.609 40.056 151.233 42.552 152.481 44.76C153.729 46.92 155.409 48.648 157.521 49.944C159.681 51.24 162.081 51.888 164.721 51.888Z" fill="black"/>
<path d="M201.66 57C200.748 57 199.956 56.712 199.284 56.136C198.66 55.56 198.348 54.816 198.348 53.904V3.864C198.348 2.952 198.636 2.208 199.212 1.632C199.788 1.056 200.532 0.767999 201.444 0.767999H218.868C221.844 0.767999 224.508 1.392 226.86 2.64C229.26 3.888 231.156 5.592 232.548 7.752C233.94 9.864 234.636 12.336 234.636 15.168C234.636 17.712 233.94 19.968 232.548 21.936C231.204 23.904 229.428 25.44 227.22 26.544C230.388 27.36 232.956 28.944 234.924 31.296C236.892 33.6 237.876 36.576 237.876 40.224C237.876 43.536 237.108 46.44 235.572 48.936C234.084 51.432 231.996 53.4 229.308 54.84C226.668 56.28 223.62 57 220.164 57H201.66ZM204.54 51.168H220.164C222.42 51.168 224.412 50.736 226.14 49.872C227.916 48.96 229.308 47.712 230.316 46.128C231.324 44.496 231.828 42.528 231.828 40.224C231.828 38.112 231.324 36.288 230.316 34.752C229.308 33.216 227.916 32.04 226.14 31.224C224.412 30.408 222.42 30 220.164 30H204.54V51.168ZM204.54 24.096H218.868C221.7 24.096 224.028 23.328 225.852 21.792C227.676 20.256 228.588 18.048 228.588 15.168C228.588 12.336 227.676 10.2 225.852 8.76C224.028 7.32 221.7 6.6 218.868 6.6H204.54V24.096ZM257.108 57C255.092 57 253.316 56.472 251.78 55.416C250.244 54.312 249.044 52.8 248.18 50.88C247.316 48.96 246.884 46.752 246.884 44.256V3.792C246.884 2.88 247.148 2.16 247.676 1.632C248.252 1.056 248.996 0.767999 249.908 0.767999C250.772 0.767999 251.468 1.056 251.996 1.632C252.572 2.16 252.86 2.88 252.86 3.792V44.256C252.86 46.224 253.244 47.856 254.012 49.152C254.828 50.4 255.86 51.024 257.108 51.024H258.908C259.676 51.024 260.3 51.312 260.78 51.888C261.26 52.416 261.5 53.112 261.5 53.976C261.5 54.888 261.14 55.632 260.42 56.208C259.748 56.736 258.86 57 257.756 57H257.108ZM284.814 57.36C280.926 57.36 277.47 56.496 274.446 54.768C271.47 53.04 269.118 50.664 267.39 47.64C265.662 44.616 264.798 41.184 264.798 37.344C264.798 33.456 265.662 30 267.39 26.976C269.118 23.952 271.47 21.576 274.446 19.848C277.47 18.12 280.926 17.256 284.814 17.256C288.654 17.256 292.062 18.12 295.038 19.848C298.014 21.576 300.366 23.952 302.094 26.976C303.822 30 304.71 33.456 304.758 37.344C304.758 41.184 303.894 44.616 302.166 47.64C300.438 50.664 298.062 53.04 295.038 54.768C292.062 56.496 288.654 57.36 284.814 57.36ZM284.814 51.888C287.502 51.888 289.902 51.264 292.014 50.016C294.126 48.72 295.782 46.992 296.982 44.832C298.182 42.624 298.782 40.128 298.782 37.344C298.782 34.56 298.182 32.064 296.982 29.856C295.782 27.648 294.126 25.92 292.014 24.672C289.902 23.376 287.502 22.728 284.814 22.728C282.126 22.728 279.702 23.376 277.542 24.672C275.43 25.92 273.75 27.648 272.502 29.856C271.302 32.064 270.702 34.56 270.702 37.344C270.702 40.128 271.302 42.624 272.502 44.832C273.75 46.992 275.43 48.72 277.542 50.016C279.702 51.264 282.126 51.888 284.814 51.888ZM332.607 57.36C328.863 57.36 325.551 56.52 322.671 54.84C319.791 53.112 317.535 50.736 315.903 47.712C314.271 44.688 313.455 41.232 313.455 37.344C313.455 33.408 314.319 29.928 316.047 26.904C317.775 23.88 320.127 21.528 323.103 19.848C326.127 18.12 329.583 17.256 333.471 17.256C337.311 17.256 340.719 18.12 343.695 19.848C346.719 21.528 349.071 23.88 350.751 26.904C352.479 29.928 353.367 33.408 353.415 37.344L349.815 38.568C349.815 42.216 349.071 45.456 347.583 48.288C346.143 51.12 344.127 53.352 341.535 54.984C338.943 56.568 335.967 57.36 332.607 57.36ZM333.471 72.768C329.823 72.768 326.535 72.072 323.607 70.68C320.727 69.288 318.303 67.344 316.335 64.848C315.807 64.224 315.591 63.528 315.687 62.76C315.783 62.04 316.167 61.464 316.839 61.032C317.559 60.552 318.327 60.384 319.143 60.528C319.959 60.672 320.607 61.08 321.087 61.752C322.431 63.432 324.159 64.776 326.271 65.784C328.383 66.792 330.831 67.296 333.615 67.296C336.159 67.296 338.487 66.672 340.599 65.424C342.711 64.224 344.367 62.472 345.567 60.168C346.815 57.864 347.439 55.128 347.439 51.96V41.304L349.599 36.408L353.415 37.344V52.32C353.415 56.16 352.551 59.616 350.823 62.688C349.095 65.808 346.743 68.256 343.767 70.032C340.791 71.856 337.359 72.768 333.471 72.768ZM333.471 51.888C336.207 51.888 338.607 51.264 340.671 50.016C342.783 48.768 344.439 47.064 345.639 44.904C346.839 42.696 347.439 40.176 347.439 37.344C347.439 34.512 346.839 31.992 345.639 29.784C344.439 27.576 342.783 25.848 340.671 24.6C338.607 23.352 336.207 22.728 333.471 22.728C330.735 22.728 328.311 23.352 326.199 24.6C324.087 25.848 322.407 27.576 321.159 29.784C319.959 31.992 319.359 34.512 319.359 37.344C319.359 40.176 319.959 42.696 321.159 44.904C322.407 47.064 324.087 48.768 326.199 50.016C328.311 51.264 330.735 51.888 333.471 51.888Z" fill="#96DC14"/>
</svg>
